<?xml version="1.0" encoding="utf-8"?>
<!-- Generator: Adobe Illustrator 22.0.0, SVG Export Plug-In . SVG Version: 6.00 Build 0)  -->
<svg version="1.1" id="Layer_1" xmlns="http://www.w3.org/2000/svg" xmlns:xlink="http://www.w3.org/1999/xlink" x="0px" y="0px"
	 viewBox="0 0 726 498" style="enable-background:new 0 0 726 498;" xml:space="preserve">
<style type="text/css">
	.st0{fill:#231F20;}
	.st1{fill:#F27920;}
</style>
<g>
	<path class="st0" d="M484.8,84.8c-2.8,0-5.1-2.3-5.1-5.1V49.1c0-2.8,2.3-5.1,5.1-5.1s5.1,2.3,5.1,5.1v30.6
		C489.9,82.6,487.6,84.8,484.8,84.8z"/>
	<path class="st0" d="M566.9,104.1c-0.4,0-0.8-0.1-1.2-0.3c-1.1-0.6-1.5-2.1-0.9-3.2l15.3-26.5c0.6-1.1,2.1-1.5,3.2-0.9
		c1.1,0.6,1.5,2.1,0.9,3.2l-15.3,26.5C568.5,103.7,567.7,104.1,566.9,104.1z"/>
	<path class="st0" d="M402.7,104.1c-0.8,0-1.6-0.4-2-1.2l-15.3-26.5c-0.6-1.1-0.3-2.6,0.9-3.2c1.1-0.6,2.5-0.3,3.2,0.9l15.3,26.5
		c0.6,1.1,0.3,2.6-0.9,3.2C403.5,104,403.1,104.1,402.7,104.1z"/>
	<path class="st0" d="M627,164.4c-0.9,0-1.7-0.4-2.2-1.3c-0.7-1.2-0.3-2.7,0.9-3.4l26.5-15.3c1.2-0.7,2.7-0.3,3.4,0.9
		c0.7,1.2,0.3,2.7-0.9,3.4L628.3,164C627.9,164.3,627.4,164.4,627,164.4z"/>
	<path class="st0" d="M653.5,343.9c-0.4,0-0.9-0.1-1.2-0.3l-26.5-15.3c-1.2-0.7-1.6-2.2-0.9-3.4c0.7-1.2,2.2-1.6,3.4-0.9l26.5,15.3
		c1.2,0.7,1.6,2.2,0.9,3.4C655.2,343.4,654.4,343.9,653.5,343.9z"/>
	<path class="st0" d="M582.2,415c-0.8,0-1.6-0.4-2-1.2l-15.3-26.5c-0.6-1.1-0.3-2.6,0.9-3.2c1.1-0.6,2.6-0.3,3.2,0.9l15.3,26.5
		c0.6,1.1,0.3,2.6-0.9,3.2C583,414.9,582.6,415,582.2,415z"/>
	<path class="st0" d="M679.6,249.1H649c-2.8,0-5.1-2.3-5.1-5.1s2.3-5.1,5.1-5.1h30.6c2.8,0,5.1,2.3,5.1,5.1S682.4,249.1,679.6,249.1
		z"/>
	<path class="st0" d="M484.8,443.9c-2.8,0-5.1-2.3-5.1-5.1v-30.6c0-2.8,2.3-5.1,5.1-5.1s5.1,2.3,5.1,5.1v30.6
		C489.9,441.6,487.6,443.9,484.8,443.9z"/>
	<path class="st1" d="M484.8,473.1c-4.2,0-7.6-3.4-7.6-7.6s3.4-7.6,7.6-7.6c117.9,0,213.8-95.9,213.8-213.8S602.7,30.2,484.8,30.2
		c-69.4,0-134.8,33.9-174.9,90.8c-2.4,3.4-7.2,4.3-10.6,1.8c-3.4-2.4-4.3-7.2-1.8-10.6c42.9-60.9,113-97.3,187.4-97.3
		c126.3,0,229.1,102.8,229.1,229.1S611.1,473.1,484.8,473.1z"/>
	<g>
		<path class="st1" d="M611.4,260.6l-63.1,102.6h-30.9l63.6-99.3h-53.4l4.5-25h83.1L611.4,260.6z"/>
	</g>
	<g>
		<path class="st1" d="M33.6,342.2c25.5-18.3,45.9-33.4,61.2-45.3c15.2-12,28.4-24.2,39.5-36.7c11.1-12.5,17.6-24.5,19.5-36
			c0.7-3.3,1.1-6.3,1.1-9.1c0-6.8-1.8-12-5.4-15.5c-3.6-3.5-9.1-5.3-16.3-5.3c-18,0-29.5,12.8-34.4,38.3H40.3
			c6.1-29.5,18.8-51.7,38.1-66.6c19.3-14.9,41.5-22.3,66.6-22.3c24.4,0,42.5,5.5,54.3,16.5c11.8,11,17.7,25.5,17.7,43.6
			c0,5.6-0.5,10.8-1.4,15.5c-4.2,23.9-16.6,46.2-37.1,66.8c-20.5,20.6-45.9,41.2-76.1,61.9h94.9l-8.8,48.9H12.1l7.7-44.6L33.6,342.2
			z"/>
		<path class="st1" d="M224.1,354.5l8.4-48.5l138.8-158.9h67.5l-27.4,155.4h28.8l-9.1,52h-28.8l-8.1,45.7h-60.5l8.4-45.7H224.1z
			 M371.3,213.2l-74.9,89.3h59L371.3,213.2z"/>
	</g>
	<g>
		<path class="st0" d="M501.6,244.5l24.7,47.6h-33.1l-13.8-26.5l-20.2,26.5h-31.9l40.3-49.1l-24.3-47.1h33.1l13.8,26.7l20.2-26.7
			h31.9L501.6,244.5z"/>
	</g>
	<g>
		<path class="st0" d="M18.7,478.6c-4.4-3-6.6-7.3-6.6-12.9c0-0.6,0.1-1.4,0.2-2.5h16.3c-0.2,2.3,0.4,4.2,1.7,5.5
			c1.3,1.3,3.2,2,5.9,2c2.4,0,4.3-0.5,5.6-1.6c1.4-1,2.1-2.5,2.1-4.4c0-2-0.9-3.6-2.6-4.8c-1.7-1.2-4.5-2.6-8.1-4.1
			c-3.6-1.5-6.4-2.9-8.7-4.2c-2.2-1.3-4.2-3.1-5.8-5.4c-1.7-2.3-2.5-5.1-2.5-8.5c-0.1-4.2,1-7.9,3.1-11c2.1-3.1,5.1-5.5,8.9-7.2
			c3.8-1.7,8.1-2.5,13-2.5c4.4,0,8.3,0.7,11.8,2.1c3.4,1.4,6.1,3.4,8,6c1.9,2.6,2.8,5.7,2.8,9.2c0,0.9,0,1.6-0.1,2H47
			c0.1-0.2,0.1-0.6,0.1-1.1c0-1.7-0.6-3.1-1.8-4.2c-1.2-1.1-2.8-1.6-4.9-1.6c-2.2,0-4,0.5-5.4,1.6c-1.4,1.1-2.1,2.5-2.1,4.4
			c0,1.8,0.9,3.4,2.6,4.6c1.7,1.3,4.4,2.7,8,4.4c3.6,1.7,6.6,3.2,8.9,4.6c2.3,1.4,4.3,3.3,5.9,5.6c1.7,2.4,2.5,5.3,2.5,8.7
			c0,3.8-1,7.2-3,10.2c-2,3-4.9,5.3-8.7,7c-3.8,1.7-8.2,2.5-13.3,2.5C28.8,483.1,23.1,481.6,18.7,478.6z"/>
		<path class="st0" d="M92.1,430.4l-2.3,13.4h21l-2.1,11.8h-21l-2.6,14.4h23.8l-2.2,12.4H67.2L78.6,418h39.5l-2.2,12.4H92.1z"/>
		<path class="st0" d="M169.9,422.5c3.5,3,5.2,7,5.2,11.8c0,1.4-0.1,2.7-0.4,3.9c-0.7,4.3-2.6,8.1-5.6,11.5c-3,3.4-7,5.8-12,7.2
			l10.4,25.5h-17.7l-9.1-24.3h-3.8l-4.3,24.3h-15.7l11.4-64.5h26.4C161.3,418,166.4,419.5,169.9,422.5z M158.9,437
			c0-2-0.6-3.5-1.9-4.5c-1.3-1.1-3.1-1.6-5.6-1.6h-9.7l-2.8,16.2h9.7c2.9,0,5.2-0.7,6.8-2.1c1.7-1.4,2.8-3.4,3.3-6
			C158.8,438,158.9,437.3,158.9,437z"/>
		<path class="st0" d="M200,418l7.4,48.7L232,418h16.7l-34.3,64.5h-19.7L183.3,418H200z"/>
		<path class="st0" d="M270.9,418l-11.4,64.5h-15.7l11.4-64.5H270.9z"/>
		<path class="st0" d="M281.2,433.1c3.6-5,8.2-8.9,13.5-11.7c5.4-2.8,11.2-4.2,17.4-4.2c7.7,0,13.9,2,18.6,6.1c4.7,4,7.4,9.5,8,16.5
			h-17.3c-0.8-2.6-2.2-4.6-4.4-6c-2.1-1.4-4.7-2.1-7.8-2.1c-4.8,0-9,1.7-12.6,5c-3.6,3.3-5.8,7.8-6.8,13.4c-0.3,1.7-0.5,3.2-0.5,4.5
			c0,4.3,1.2,7.7,3.6,10.2c2.4,2.5,5.7,3.8,9.8,3.8c3,0,5.8-0.7,8.4-2.1c2.6-1.4,4.8-3.4,6.6-6.1h17.3c-3.1,7-7.7,12.5-13.9,16.5
			c-6.2,4-13.1,6-20.8,6c-5.5,0-10.3-1.1-14.4-3.2c-4.1-2.1-7.3-5.2-9.5-9.1s-3.3-8.5-3.3-13.7c0-2.3,0.2-4.6,0.6-6.8
			C275.1,443.8,277.5,438.1,281.2,433.1z"/>
		<path class="st0" d="M365.8,430.4l-2.3,13.4h21l-2.1,11.8h-21l-2.6,14.4h23.8l-2.2,12.4h-39.5l11.4-64.5h39.5l-2.2,12.4H365.8z"/>
	</g>
</g>
</svg>
