<svg width="607" height="607" viewBox="0 0 607 607" fill="none" xmlns="http://www.w3.org/2000/svg">
<path d="M537.001 0H70.334C51.766 0 33.9647 7.37493 20.834 20.5C7.70892 33.6303 0.333984 51.432 0.333984 70V536.667C0.333984 555.235 7.70892 573.036 20.834 586.167C33.9643 599.292 51.766 606.667 70.334 606.667H537.001C555.569 606.667 573.37 599.292 586.501 586.167C599.626 573.036 607.001 555.235 607.001 536.667V70C607.001 51.432 599.626 33.6307 586.501 20.5C573.37 7.37493 555.569 0 537.001 0ZM560.334 536.667C560.334 542.854 557.876 548.792 553.501 553.167C549.126 557.542 543.188 560 537.001 560H277.761C309.245 529.349 327.001 487.271 326.995 443.333V306.16L372.241 351.425C381.084 360.269 393.975 363.727 406.058 360.488C418.141 357.253 427.579 347.816 430.813 335.733C434.052 323.65 430.594 310.76 421.75 301.916L328.417 208.583C321.854 202.015 312.947 198.322 303.662 198.322C294.377 198.322 285.469 202.015 278.907 208.583L185.574 301.916C176.73 310.76 173.272 323.651 176.512 335.733C179.746 347.817 189.183 357.255 201.266 360.488C213.35 363.727 226.24 360.269 235.084 351.425L280.329 306.16V443.333C280.292 474.265 267.99 503.917 246.116 525.787C224.246 547.661 194.594 559.964 163.662 560H70.3289C64.1415 560 58.2039 557.542 53.8289 553.167C49.454 548.792 46.9956 542.854 46.9956 536.667V70C46.9956 63.8125 49.454 57.8749 53.8289 53.5C58.2039 49.1251 64.1415 46.6667 70.3289 46.6667H536.996C543.183 46.6667 549.121 49.1251 553.496 53.5C557.871 57.8749 560.329 63.8125 560.329 70L560.334 536.667Z" fill="white"/>
</svg>
