<?xml version="1.0" encoding="utf-8"?>
<!-- Generator: Adobe Illustrator 22.0.0, SVG Export Plug-In . SVG Version: 6.00 Build 0)  -->
<svg version="1.1" id="Layer_1" xmlns="http://www.w3.org/2000/svg" xmlns:xlink="http://www.w3.org/1999/xlink" x="0px" y="0px"
	 viewBox="0 0 750 500" style="enable-background:new 0 0 750 500;" xml:space="preserve">
<style type="text/css">
	.st0{fill:#3560B8;}
	.st1{opacity:0.7;fill:#FFFFFF;enable-background:new    ;}
	.st2{opacity:0.3;}
	.st3{fill:none;stroke:#000000;stroke-miterlimit:10;}
	.st4{opacity:0.5;fill:#FFFFFF;enable-background:new    ;}
	.st5{fill:#A3A3A3;}
	.st6{fill:#3560B8;stroke:#263238;stroke-miterlimit:10;}
	.st7{fill:none;stroke:#263238;stroke-miterlimit:10;}
	.st8{fill:#263238;stroke:#263238;stroke-miterlimit:10;}
	.st9{fill:#FFFFFF;stroke:#263238;stroke-miterlimit:10;}
	.st10{fill:none;stroke:#263238;stroke-width:3;stroke-linecap:round;stroke-miterlimit:10;}
	.st11{fill:none;stroke:#787878;stroke-miterlimit:10;}
</style>
<path class="st0" d="M696,146.1c0,0-36.6-79.1-162.6-112.3s-199.3,50.4-236,113.4s-140.9,66.4-202.7,81.3s-77.9,165,8,208.5
	s167.2-2.3,244-2.3s209.6,50.4,304.7,6.9S757.9,244.6,696,146.1z"/>
<path class="st1" d="M696,146.1c0,0-36.6-79.1-162.6-112.3s-199.3,50.4-236,113.4s-140.9,66.4-202.7,81.3s-77.9,165,8,208.5
	s167.2-2.3,244-2.3s209.6,50.4,304.7,6.9S757.9,244.6,696,146.1z"/>
<g class="st2">
	<path class="st3" d="M614.4,143.8c-4.3-2.3-6.2-0.4-7.8-2.3s4.3-7-7.4-12c0,0-0.8-10.9-16.7-11.3s-11.6,10.9-15.9,13.6
		s-5.4-1.6-9.7,1.2s-2.3,8.1-5.8,8.9s-8.1-3.5-12.4-0.8s-4.3,5-6.2,5s-5.8-1.6-8.1,0s-5,3.5-5,3.5h98.1
		C617.5,149.6,618.7,146.1,614.4,143.8z"/>
</g>
<g class="st2">
	<path class="st3" d="M373.5,85.7c-1.9-1.1-2.8-0.2-3.5-1.1s1.9-3.2-3.3-5.5c0,0-0.4-4.9-7.6-5.1s-5.3,4.9-7.2,6.2s-2.5-0.7-4.4,0.5
		s-1,3.7-2.6,4s-3.7-1.6-5.6-0.4s-1.9,2.3-2.8,2.3s-2.6-0.7-3.7,0s-2.3,1.6-2.3,1.6h44.5C375.1,87.2,374.5,86.1,373.5,85.7z"/>
</g>
<g class="st2">
	<path class="st3" d="M146.9,101.8c-4-2.2-5.8-0.4-7.2-2.2s4-6.5-6.8-11.2c0,0-0.7-10.1-15.5-10.4s-10.8,10.1-14.8,12.6
		s-5-1.4-9,1.1s-2.2,7.6-5.4,8.3s-7.6-3.2-11.5-0.7s-4,4.7-5.8,4.7s-5.4-1.4-7.6,0s-4.7,3.2-4.7,3.2h91.2
		C149.8,107.2,150.9,104,146.9,101.8z"/>
</g>
<g class="st2">
	<path class="st3" d="M366.5,65c-2.7-1.5-3.9-0.2-4.8-1.5s2.7-4.4-4.6-7.5c0,0-0.5-6.8-10.4-7s-7.3,6.8-9.9,8.5s-3.4-1-6,0.7
		s-1.5,5.1-3.6,5.6s-5.1-2.2-7.7-0.5c-2.7,1.7-2.7,3.1-3.9,3.1s-3.6-1-5.1,0s-3.1,2.2-3.1,2.2h61.2C368.5,68.7,369.2,66.5,366.5,65z
		"/>
</g>
<g class="st2">
	<rect x="138.5" y="218.1" class="st3" width="13.9" height="12.3"/>
	<rect x="123.5" y="225.6" class="st3" width="5.6" height="4.8"/>
	<polyline class="st3" points="694.7,295.6 642,295.6 642,198.3 645.5,198.3 645.5,188.2 522,188.2 522,198.3 526.3,198.3 
		526.3,343 493.9,343 493.9,32.4 382.9,32.4 382.9,267.3 342.3,267.3 342.3,241.3 352.9,241.3 352.9,230.3 264.1,230.3 264.1,72.7 
		269.9,72.7 269.9,64.5 162.1,64.5 162.1,72.7 169.8,72.7 169.8,230.6 84.6,230.6 84.6,343.5 39.9,343.5 	"/>
	<rect x="377.9" y="29" class="st3" width="120.4" height="3.4"/>
	<rect x="179.4" y="81.9" class="st3" width="13.6" height="12.7"/>
	<rect x="199.4" y="81.9" class="st3" width="13.6" height="12.7"/>
	<rect x="219.2" y="81.9" class="st3" width="13.6" height="12.7"/>
	<rect x="239.1" y="81.9" class="st3" width="13.6" height="12.7"/>
	<rect x="179.4" y="102" class="st3" width="13.6" height="12.7"/>
	<rect x="199.4" y="102" class="st3" width="13.6" height="12.7"/>
	<rect x="219.2" y="102" class="st3" width="13.6" height="12.7"/>
	<rect x="239.1" y="102" class="st3" width="13.6" height="12.7"/>
	<rect x="179.4" y="122.2" class="st3" width="13.6" height="12.7"/>
	<rect x="199.4" y="122.2" class="st3" width="13.6" height="12.7"/>
	<rect x="219.2" y="122.2" class="st3" width="13.6" height="12.7"/>
	<rect x="239.1" y="122.2" class="st3" width="13.6" height="12.7"/>
	<rect x="179.4" y="142.4" class="st3" width="13.6" height="12.7"/>
	<rect x="199.4" y="142.4" class="st3" width="13.6" height="12.7"/>
	<rect x="219.2" y="142.4" class="st3" width="13.6" height="12.7"/>
	<rect x="239.1" y="142.4" class="st3" width="13.6" height="12.7"/>
	<rect x="179.4" y="162.5" class="st3" width="13.6" height="12.7"/>
	<rect x="199.4" y="162.5" class="st3" width="13.6" height="12.7"/>
	<rect x="219.2" y="162.5" class="st3" width="13.6" height="12.7"/>
	<rect x="239.1" y="162.5" class="st3" width="13.6" height="12.7"/>
	<rect x="179.4" y="182.7" class="st3" width="13.6" height="12.7"/>
	<rect x="199.4" y="182.7" class="st3" width="13.6" height="12.7"/>
	<rect x="219.2" y="182.7" class="st3" width="13.6" height="12.7"/>
	<rect x="239.1" y="182.7" class="st3" width="13.6" height="12.7"/>
	<rect x="179.4" y="202.8" class="st3" width="13.6" height="12.7"/>
	<rect x="199.4" y="202.8" class="st3" width="13.6" height="12.7"/>
	<rect x="219.2" y="202.8" class="st3" width="13.6" height="12.7"/>
	<rect x="239.1" y="202.8" class="st3" width="13.6" height="12.7"/>
	<rect x="179.4" y="223" class="st3" width="13.6" height="12.7"/>
	<rect x="199.4" y="223" class="st3" width="13.6" height="12.7"/>
	<rect x="219.2" y="223" class="st3" width="13.6" height="12.7"/>
	<rect x="239.1" y="223" class="st3" width="13.6" height="12.7"/>
	<rect x="179.4" y="241.4" class="st3" width="13.6" height="12.7"/>
	<rect x="199.4" y="241.4" class="st3" width="13.6" height="12.7"/>
	<rect x="219.2" y="241.4" class="st3" width="13.6" height="12.7"/>
	<rect x="239.1" y="241.4" class="st3" width="13.6" height="12.7"/>
	<rect x="179.4" y="261.6" class="st3" width="13.6" height="12.7"/>
	<rect x="199.4" y="261.6" class="st3" width="13.6" height="12.7"/>
	<rect x="219.2" y="261.6" class="st3" width="13.6" height="12.7"/>
	<rect x="239.1" y="261.6" class="st3" width="13.6" height="12.7"/>
	<rect x="179.4" y="281.8" class="st3" width="13.6" height="12.7"/>
	<rect x="199.4" y="281.8" class="st3" width="13.6" height="12.7"/>
	<rect x="219.2" y="281.8" class="st3" width="13.6" height="12.7"/>
	<rect x="239.1" y="281.8" class="st3" width="13.6" height="12.7"/>
	<rect x="179.4" y="301.9" class="st3" width="13.6" height="12.7"/>
	<rect x="199.4" y="301.9" class="st3" width="13.6" height="12.7"/>
	<rect x="219.2" y="301.9" class="st3" width="13.6" height="12.7"/>
	<rect x="239.1" y="301.9" class="st3" width="13.6" height="12.7"/>
	<rect x="179.4" y="322.1" class="st3" width="13.6" height="12.7"/>
	<rect x="199.4" y="322.1" class="st3" width="13.6" height="12.7"/>
	<rect x="219.2" y="322.1" class="st3" width="13.6" height="12.7"/>
	<rect x="239.1" y="322.1" class="st3" width="13.6" height="12.7"/>
	<rect x="179.4" y="342.2" class="st3" width="13.6" height="12.7"/>
	<rect x="199.4" y="342.2" class="st3" width="13.6" height="12.7"/>
	<rect x="219.2" y="342.2" class="st3" width="13.6" height="12.7"/>
	<rect x="239.1" y="342.2" class="st3" width="13.6" height="12.7"/>
	<rect x="179.4" y="362.4" class="st3" width="13.6" height="12.7"/>
	<rect x="199.4" y="362.4" class="st3" width="13.6" height="12.7"/>
	<rect x="219.2" y="362.4" class="st3" width="13.6" height="12.7"/>
	<rect x="239.1" y="362.4" class="st3" width="13.6" height="12.7"/>
	<rect x="179.4" y="382.5" class="st3" width="13.6" height="12.7"/>
	<rect x="199.4" y="382.5" class="st3" width="13.6" height="12.7"/>
	<rect x="219.2" y="382.5" class="st3" width="13.6" height="12.7"/>
	<rect x="239.1" y="382.5" class="st3" width="13.6" height="12.7"/>
	<rect x="257.1" y="241.4" class="st3" width="13.6" height="12.7"/>
	<rect x="277" y="241.4" class="st3" width="13.6" height="12.7"/>
	<rect x="296.9" y="241.4" class="st3" width="13.6" height="12.7"/>
	<rect x="316.8" y="241.4" class="st3" width="13.6" height="12.7"/>
	<rect x="257.1" y="261.6" class="st3" width="13.6" height="12.7"/>
	<rect x="277" y="261.6" class="st3" width="13.6" height="12.7"/>
	<rect x="296.9" y="261.6" class="st3" width="13.6" height="12.7"/>
	<rect x="316.8" y="261.6" class="st3" width="13.6" height="12.7"/>
	<rect x="257.1" y="281.8" class="st3" width="13.6" height="12.7"/>
	<rect x="277" y="281.8" class="st3" width="13.6" height="12.7"/>
	<rect x="296.9" y="281.8" class="st3" width="13.6" height="12.7"/>
	<rect x="316.8" y="281.8" class="st3" width="13.6" height="12.7"/>
	<rect x="257.1" y="301.9" class="st3" width="13.6" height="12.7"/>
	<rect x="277" y="301.9" class="st3" width="13.6" height="12.7"/>
	<rect x="296.9" y="301.9" class="st3" width="13.6" height="12.7"/>
	<rect x="316.8" y="301.9" class="st3" width="13.6" height="12.7"/>
	<rect x="257.1" y="322.1" class="st3" width="13.6" height="12.7"/>
	<rect x="277" y="322.1" class="st3" width="13.6" height="12.7"/>
	<rect x="296.9" y="322.1" class="st3" width="13.6" height="12.7"/>
	<rect x="316.8" y="322.1" class="st3" width="13.6" height="12.7"/>
	<rect x="257.1" y="342.2" class="st3" width="13.6" height="12.7"/>
	<rect x="277" y="342.2" class="st3" width="13.6" height="12.7"/>
	<rect x="296.9" y="342.2" class="st3" width="13.6" height="12.7"/>
	<rect x="316.8" y="342.2" class="st3" width="13.6" height="12.7"/>
	<rect x="257.1" y="362.4" class="st3" width="13.6" height="12.7"/>
	<rect x="277" y="362.4" class="st3" width="13.6" height="12.7"/>
	<rect x="296.9" y="362.4" class="st3" width="13.6" height="12.7"/>
	<rect x="316.8" y="362.4" class="st3" width="13.6" height="12.7"/>
	<rect x="257.1" y="382.5" class="st3" width="13.6" height="12.7"/>
	<rect x="277" y="382.5" class="st3" width="13.6" height="12.7"/>
	<rect x="296.9" y="382.5" class="st3" width="13.6" height="12.7"/>
	<rect x="316.8" y="382.5" class="st3" width="13.6" height="12.7"/>
	<rect x="100.7" y="241.4" class="st3" width="13.6" height="12.7"/>
	<rect x="120.6" y="241.4" class="st3" width="13.6" height="12.7"/>
	<rect x="140.4" y="241.4" class="st3" width="13.6" height="12.7"/>
	<rect x="160.3" y="241.4" class="st3" width="13.6" height="12.7"/>
	<rect x="100.7" y="261.6" class="st3" width="13.6" height="12.7"/>
	<rect x="120.6" y="261.6" class="st3" width="13.6" height="12.7"/>
	<rect x="140.4" y="261.6" class="st3" width="13.6" height="12.7"/>
	<rect x="160.3" y="261.6" class="st3" width="13.6" height="12.7"/>
	<rect x="100.7" y="281.8" class="st3" width="13.6" height="12.7"/>
	<rect x="120.6" y="281.8" class="st3" width="13.6" height="12.7"/>
	<rect x="140.4" y="281.8" class="st3" width="13.6" height="12.7"/>
	<rect x="160.3" y="281.8" class="st3" width="13.6" height="12.7"/>
	<rect x="100.7" y="301.9" class="st3" width="13.6" height="12.7"/>
	<rect x="120.6" y="301.9" class="st3" width="13.6" height="12.7"/>
	<rect x="140.4" y="301.9" class="st3" width="13.6" height="12.7"/>
	<rect x="160.3" y="301.9" class="st3" width="13.6" height="12.7"/>
	<rect x="100.7" y="322.1" class="st3" width="13.6" height="12.7"/>
	<rect x="120.6" y="322.1" class="st3" width="13.6" height="12.7"/>
	<rect x="140.4" y="322.1" class="st3" width="13.6" height="12.7"/>
	<rect x="160.3" y="322.1" class="st3" width="13.6" height="12.7"/>
	<rect x="100.7" y="342.2" class="st3" width="13.6" height="12.7"/>
	<rect x="120.6" y="342.2" class="st3" width="13.6" height="12.7"/>
	<rect x="140.4" y="342.2" class="st3" width="13.6" height="12.7"/>
	<rect x="160.3" y="342.2" class="st3" width="13.6" height="12.7"/>
	<rect x="100.7" y="362.4" class="st3" width="13.6" height="12.7"/>
	<rect x="120.6" y="362.4" class="st3" width="13.6" height="12.7"/>
	<rect x="140.4" y="362.4" class="st3" width="13.6" height="12.7"/>
	<rect x="160.3" y="362.4" class="st3" width="13.6" height="12.7"/>
	<rect x="100.7" y="382.5" class="st3" width="13.6" height="12.7"/>
	<rect x="120.6" y="382.5" class="st3" width="13.6" height="12.7"/>
	<rect x="140.4" y="382.5" class="st3" width="13.6" height="12.7"/>
	<rect x="160.3" y="382.5" class="st3" width="13.6" height="12.7"/>
	<rect x="545" y="201.9" class="st3" width="13.6" height="12.7"/>
	<rect x="564.9" y="201.9" class="st3" width="13.6" height="12.7"/>
	<rect x="584.8" y="201.9" class="st3" width="13.6" height="12.7"/>
	<rect x="604.7" y="201.9" class="st3" width="13.6" height="12.7"/>
	<rect x="545" y="222.1" class="st3" width="13.6" height="12.7"/>
	<rect x="564.9" y="222.1" class="st3" width="13.6" height="12.7"/>
	<rect x="584.8" y="222.1" class="st3" width="13.6" height="12.7"/>
	<rect x="604.7" y="222.1" class="st3" width="13.6" height="12.7"/>
	<rect x="545" y="242.2" class="st3" width="13.6" height="12.7"/>
	<rect x="564.9" y="242.2" class="st3" width="13.6" height="12.7"/>
	<rect x="584.8" y="242.2" class="st3" width="13.6" height="12.7"/>
	<rect x="604.7" y="242.2" class="st3" width="13.6" height="12.7"/>
	<rect x="545" y="262.4" class="st3" width="13.6" height="12.7"/>
	<rect x="564.9" y="262.4" class="st3" width="13.6" height="12.7"/>
	<rect x="584.8" y="262.4" class="st3" width="13.6" height="12.7"/>
	<rect x="604.7" y="262.4" class="st3" width="13.6" height="12.7"/>
	<rect x="545" y="282.5" class="st3" width="13.6" height="12.7"/>
	<rect x="564.9" y="282.5" class="st3" width="13.6" height="12.7"/>
	<rect x="584.8" y="282.5" class="st3" width="13.6" height="12.7"/>
	<rect x="604.7" y="282.5" class="st3" width="13.6" height="12.7"/>
	<rect x="545" y="302.7" class="st3" width="13.6" height="12.7"/>
	<rect x="564.9" y="302.7" class="st3" width="13.6" height="12.7"/>
	<rect x="584.8" y="302.7" class="st3" width="13.6" height="12.7"/>
	<rect x="604.7" y="302.7" class="st3" width="13.6" height="12.7"/>
	<rect x="545" y="322.9" class="st3" width="13.6" height="12.7"/>
	<rect x="564.9" y="322.9" class="st3" width="13.6" height="12.7"/>
	<rect x="584.8" y="322.9" class="st3" width="13.6" height="12.7"/>
	<rect x="604.7" y="322.9" class="st3" width="13.6" height="12.7"/>
	<rect x="545" y="343" class="st3" width="13.6" height="12.7"/>
	<rect x="564.9" y="343" class="st3" width="13.6" height="12.7"/>
	<rect x="584.8" y="343" class="st3" width="13.6" height="12.7"/>
	<rect x="604.7" y="343" class="st3" width="13.6" height="12.7"/>
	<line class="st3" x1="393.3" y1="39.7" x2="393.3" y2="408.1"/>
	<line class="st3" x1="406.8" y1="39.7" x2="406.8" y2="408.1"/>
	<line class="st3" x1="420.2" y1="39.7" x2="420.2" y2="408.1"/>
	<line class="st3" x1="433.7" y1="39.7" x2="433.7" y2="408.1"/>
	<line class="st3" x1="447.1" y1="39.7" x2="447.1" y2="408.1"/>
	<line class="st3" x1="460.6" y1="39.7" x2="460.6" y2="408.1"/>
	<line class="st3" x1="474" y1="39.7" x2="474" y2="408.1"/>
	<line class="st3" x1="487.5" y1="39.7" x2="487.5" y2="408.1"/>
	<rect x="109.8" y="401.7" class="st3" width="241.2" height="11.9"/>
	<rect x="499" y="401.7" class="st3" width="216.6" height="11.9"/>
</g>
<path class="st0" d="M79,289.8c0,0,53,5.3,79.9,38.1c0,0,28.4-38.1,79.4-37.3c36.3-43.8,30.2-108.7-13.6-145s-108.7-30.2-145,13.6
	C48.2,197,48,251.7,79,289.8L79,289.8z"/>
<path class="st4" d="M79,289.8c0,0,53,5.3,79.9,38.1c0,0,28.4-38.1,79.4-37.3c36.3-43.8,30.2-108.7-13.6-145s-108.7-30.2-145,13.6
	C48.2,197,48,251.7,79,289.8L79,289.8z"/>
<polygon class="st5" points="157.2,129.1 155.4,459.4 164.3,459.4 "/>
<path class="st5" d="M159.8,317.9c0,0,17.9-32.2,50.1-42c0,0-34,8-51,35.8L159.8,317.9z"/>
<path class="st5" d="M159.8,226.6c0,0,17.9-32.2,50.1-42c0,0-34,8.1-51,35.8L159.8,226.6z"/>
<path class="st5" d="M159.8,272.2c0,0,17.9-32.2,50.1-42.1c0,0-34,8-51,35.8L159.8,272.2z"/>
<path class="st5" d="M157.2,249.9c0,0-17.3-32.2-48.3-42.1c0,0,32.8,8.1,49.2,35.8L157.2,249.9z"/>
<path class="st5" d="M157.2,294.6c0,0-17.3-32.2-48.3-42.1c0,0,32.8,8.1,49.2,35.8L157.2,294.6z"/>
<path class="st0" d="M583,306.2c0,0,44.7,4.4,67.4,32.1c0,0,23.9-32.1,67-31.5c30.6-37,25.5-91.7-11.4-122.4
	c-37-30.6-91.7-25.5-122.4,11.4C557,227.9,556.8,274.1,583,306.2L583,306.2z"/>
<path class="st4" d="M583,306.2c0,0,44.7,4.4,67.4,32.1c0,0,23.9-32.1,67-31.5c30.6-37,25.5-91.7-11.4-122.4
	c-37-30.6-91.7-25.5-122.4,11.4C557,227.9,556.8,274.1,583,306.2L583,306.2z"/>
<polygon class="st5" points="648.9,170.6 647.4,459.4 654.9,459.4 "/>
<path class="st5" d="M651.1,329.9c0,0,15.1-27.2,42.3-35.5c0,0-28.7,6.8-43,30.2L651.1,329.9z"/>
<path class="st5" d="M651.1,252.9c0,0,15.1-27.2,42.3-35.5c0,0-28.7,6.8-43,30.2L651.1,252.9z"/>
<path class="st5" d="M651.1,291.4c0,0,15.1-27.2,42.3-35.5c0,0-28.7,6.8-43,30.2L651.1,291.4z"/>
<path class="st5" d="M648.9,272.5c0,0-14.6-27.2-40.8-35.5c0,0,27.7,6.8,41.5,30.2L648.9,272.5z"/>
<path class="st5" d="M648.9,310.3c0,0-14.6-27.2-40.8-35.5c0,0,27.7,6.8,41.5,30.2L648.9,310.3z"/>
<g id="freepik--Car--inject-9">
	<path class="st6" d="M167.8,285.1c0,0-61.6,2.2-64.7,6.3S97.7,309,99,312.1s17.1,20.7,17.1,20.7h29.2L153,320
		c4.7-7.7,13.1-12.4,22.1-12.4l0,0c9.6,0,18.4,5.3,22.9,13.8l9.4,17.7h149.1l9.2-18.6c2.8-4.6,7.1-8.2,12.1-10.2l2.1-0.8
		c6.3-2.4,15.1-1.9,21.3,0.9l0,0c5.4,2.4,9.8,7.8,12.4,13.1l5,10.2h14.8l8.1-27.9c0,0,0-6.3-1.8-9.9s-20.2-4.5-20.2-4.5l-26.5-2.3
		l-69.6-1.4l-27-24.3c0,0,3.6-2.7,2.3-6.7s-17.1-2.7-17.1-2.7s-71.9,0.9-76.8,1.8C199.7,256.8,173.2,278.9,167.8,285.1z"/>
	<path class="st7" d="M327.7,322.8H219.2c-1.5,0-2.9-0.9-3.4-2.3l-5.3-13.2c-0.5-1.2,0.1-2.7,1.3-3.2c0.3-0.1,0.6-0.2,0.9-0.2h222"
		/>
	<polygon class="st8" points="316,290.1 292.1,269.9 299.5,290.1 	"/>
	<path class="st8" d="M229.8,290.1h66.6l-8.9-24l-1.7-1.5c-1.8-1.6-4.2-2.4-6.6-2.5l-41.9-0.6c0,0-6.9,0.1-11.4,0.5L229.8,290.1z"/>
	<path class="st8" d="M223,262.5c-0.2,0-0.3,0.1-0.5,0.1l-18,24.7h11.7l4.5,2.7h6.1L223,262.5z"/>
	<polygon class="st8" points="296.3,263.6 293,266.2 319,288.6 323.2,287.8 	"/>
	<circle class="st8" cx="175.2" cy="333.5" r="23.2"/>
	
		<ellipse transform="matrix(0.9733 -0.2297 0.2297 0.9733 -71.9207 49.1603)" class="st9" cx="175.2" cy="333.5" rx="17.3" ry="17.3"/>
	<circle class="st9" cx="175.2" cy="333.5" r="8.1"/>
	<circle class="st8" cx="388.6" cy="333.5" r="23.2"/>
	<circle class="st9" cx="388.6" cy="333.5" r="17.3"/>
	<circle class="st9" cx="388.6" cy="333.5" r="8.1"/>
	<path class="st9" d="M442,317.7h-18.8c0,0-3,0.4-1.1,1.8s10.3,14,13.3,14.4s12.5-11,12.5-13.3S442,317.7,442,317.7z"/>
	<path class="st9" d="M102.3,307h-6.3c-0.2,2.5-0.1,4.9,0.4,7.4c0.7,3.7,4.4,6.6,5.9,6.3S102.3,307,102.3,307z"/>
	<polygon class="st9" points="207.3,339.1 356.5,339.1 359.3,334.6 204.9,334.6 	"/>
	<line class="st7" x1="324.7" y1="297" x2="324.7" y2="330.4"/>
	<line class="st7" x1="229.6" y1="294.9" x2="236.6" y2="327.3"/>
</g>
<g id="freepik--Towing--inject-9">
	<line class="st10" x1="466.9" y1="310.2" x2="428.8" y2="361"/>
	<rect x="458.2" y="225.5" class="st9" width="21.7" height="15.8"/>
	<rect x="462.1" y="242.1" class="st8" width="11.9" height="116.8"/>
	<polygon class="st8" points="187.2,362.1 186.5,367.4 166.1,367.4 166.1,391.7 113.1,380.1 113.1,366.3 84.5,366.3 83.4,369.5 
		83.4,383.3 71.8,383.3 71.8,398.1 99.3,398.1 99.3,392.8 187.2,410.8 187.2,384.3 204.2,384.3 204.2,401.3 279.4,401.3 
		279.4,417.2 300.6,417.2 307,403.4 347.2,403.4 491.3,403.4 491.3,362.1 	"/>
	<polygon class="st8" points="584,250.8 617.9,319.2 596.4,319.2 569.4,248.4 582.9,247.6 	"/>
	<path class="st9" d="M677.6,337l-73.2-24.1l-27-62h6.6c1.6,0,2.9-1.3,2.9-2.9c0-0.5-0.2-1.1-0.4-1.5l-4.8-7.7
		c-0.5-0.9-1.5-1.4-2.5-1.4H486V432h95.3l3-25.8c1.6-14.2,10.2-26.7,22.9-33.3l0,0c13.1-6.8,28.7-6.4,41.5,1l4.5,2.6
		c8.5,5,15.1,12.7,18.6,22l4.2,11.1h13.5v-56.4c0-4.6-1.8-8.9-5-12.2l0,0C682.5,339.2,680.1,337.8,677.6,337z"/>
	<path class="st8" d="M499.8,250.8h49.4c1.9,0,3.5,1.6,3.5,3.5v55.3c0,1.9-1.6,3.5-3.5,3.5h-49.4c-1.9,0-3.5-1.6-3.5-3.5v-55.3
		C496.3,252.4,497.9,250.8,499.8,250.8z"/>
	<path class="st8" d="M559.9,251.5v65.8c0.1,2.1,1.9,3.6,4,3.5c0,0,0,0,0,0h24c2.7,0,4.6-2.3,3.8-4.5l-23.8-64.7L559.9,251.5z"/>
	<polygon class="st9" points="689.4,391.5 668.7,391.5 676.7,414.5 691.8,414.5 	"/>
	<circle class="st8" cx="627.6" cy="418.3" r="41.5"/>
	<circle class="st9" cx="627.6" cy="418.3" r="20.1"/>
	<circle class="st8" cx="245.2" cy="418.3" r="41.5"/>
	<circle class="st9" cx="245.1" cy="418.3" r="20.1"/>
	<rect x="489.2" y="387.5" class="st8" width="78.7" height="37.3"/>
	<line class="st11" x1="512.4" y1="389.3" x2="512.4" y2="421.5"/>
	<line class="st11" x1="543.7" y1="389.3" x2="543.7" y2="421.5"/>
	<path class="st9" d="M565.1,273.1h13.5c1.1,0,2,0.9,2,2v49.2c0,1.1-0.9,2-2,2h-13.5c-1.1,0-2-0.9-2-2v-49.2
		C563.1,274,564,273.1,565.1,273.1z"/>
	<polygon class="st9" points="60.1,369.5 487,369.5 487,355.7 44.2,355.7 	"/>
	<path class="st7" d="M598.5,360c-2.4,1.8-4.7,3.8-6.9,6"/>
	<path class="st7" d="M688.9,373.8c-19.2-26.5-55.1-34.3-83.6-18.2"/>
	<rect x="401" y="381.1" class="st9" width="69.9" height="36.5"/>
	<path class="st9" d="M484.4,226.2L484.4,226.2c-1-2.3-3.7-3.3-5.9-2.3c-0.7,0.3-1.4,0.9-1.8,1.5l-0.4,0.6c-0.3,0.5-0.5,1-0.5,1.6
		v123.1h8.9V227.3C484.6,226.9,484.5,226.6,484.4,226.2z"/>
	<rect x="473.8" y="248.7" class="st9" width="12.7" height="139.8"/>
	<path class="st8" d="M483.2,231.3c0,3.2-1.5,5.8-3.3,5.8s-3.3-2.6-3.3-5.8s1.5-5.8,3.3-5.8S483.2,228.1,483.2,231.3z"/>
	<line class="st7" x1="603.6" y1="319.7" x2="603.6" y2="352.5"/>
	<path class="st8" d="M500.2,341.9h5.5c2.6,0,4.7,2.1,4.7,4.7v20.3c0,2.6-2.1,4.7-4.7,4.7h-5.5c-2.6,0-4.7-2.1-4.7-4.7v-20.3
		C495.5,344,497.6,341.9,500.2,341.9z"/>
</g>
<g id="freepik--Floor--inject-9">
	<line class="st7" x1="573.5" y1="459.5" x2="717" y2="459.5"/>
	<line class="st7" x1="35" y1="459.5" x2="564.3" y2="459.5"/>
</g>
<g id="freepik--Character--inject-9">
	<path class="st9" d="M87.7,321.9c0,0,4.4,2.8,5.5,4.6s11.3,25.9,11.7,28.2s-2.8,6.5-6.1,6.5s-7.1-5.1-7.1-5.1l-6.5-33.9
		C85.1,322.3,85.4,321.4,87.7,321.9z"/>
	<path class="st9" d="M99.6,349.4c1.6,1.1,3,2.5,4.1,4.1"/>
	<path class="st9" d="M103,351.1c0,0-1.9-1.3-2.8-1.1"/>
	<path class="st9" d="M84,454.1c0,0,2.2,2.4,3.8,4.1s5.1,3.4,6.5,4.1c1.1,0.4,1.6,1.7,1.1,2.7c-0.1,0.2-0.2,0.4-0.3,0.5
		c-0.8,1-13.2,0.9-14.9,0.5s-8.7-0.5-9.6-0.9s-1.4-2.6-1-3.8s2.2-7.4,2.2-7.4H84z"/>
	<path class="st9" d="M80.2,466.1c-1.7-0.3-8.7-0.5-9.6-0.9s-1.2-1.8-1.1-3c3.2,0.8,11,2.5,15.7,2.5c3.9,0,8-0.3,10.4-0.5
		c0,0.5-0.1,1-0.5,1.4C94.2,466.6,81.9,466.4,80.2,466.1z"/>
	<path class="st8" d="M89.3,384.4c0,0,1.2,25.3-0.3,35.7s-4.1,28-4.1,28c0.4,1.6,0.5,3.2,0.5,4.8c-0.2,1.7-0.8,1.9-0.8,1.9
		s-5.8,1.2-9.2,2s-4.6,0-4.6-1.2s1.9-11.6,1.5-13.2s-1.5-28.4-1.5-30.6s-2.4-25.5-2.4-25.5L89.3,384.4z"/>
	<path class="st6" d="M89.4,414.8c-0.1,1.9-0.3,3.7-0.5,5.1c-1.2,0.3-2.5,0.5-3.8,0.6c-4.8,0.4-9.6-0.1-14.3-1.3
		c-0.1-2-0.2-3.7-0.2-5C80.1,416.8,86.1,416,89.4,414.8z"/>
	<path class="st6" d="M70.3,407.1c9.5,2.7,16,1.3,19.4-0.1c0,1.8-0.1,3.5-0.1,5.1c-1.9,0.6-3.8,1-5.8,1.1c-4.4,0.4-8.9,0-13.2-1.1
		v-0.3C70.6,411.3,70.5,409.5,70.3,407.1z"/>
	<path class="st9" d="M65.7,455.5c0,0,4.3,4.3,5.6,5.5s5.3,3.1,4.6,5.1s-2.4,1.9-3.4,2s-7,0.5-8.9,0s-6.2-0.7-7.4-1
		s-2.6-1.7-2.4-2.7s1.4-7.9,1.4-7.9L65.7,455.5z"/>
	<path class="st9" d="M76,465.6c0,0.2,0,0.3-0.1,0.5c-0.7,2-2.4,1.9-3.4,2s-7,0.5-8.9,0s-6.2-0.7-7.4-1s-2.6-1.7-2.4-2.7
		c0-0.1,0.1-0.4,0.1-0.7c3.6,1.4,7.3,2.4,11.2,2.8C68.8,466.6,72.4,466.3,76,465.6z"/>
	<path class="st8" d="M77.7,393.8l-3.8,5.3c0,0-2.2,33.5-3.1,39.5s-2.6,15.2-2.6,15.2s0.3,2,0.3,2.7c0,0.5-0.1,0.9-0.2,1.4
		c0,0-6.2,0.3-8.9,0.7c-1.8,0.2-3.5-0.2-5-1.2c0,0,0.2-5.8,0.2-6.3s-0.5-29.2-0.5-34.4s0.3-17.6,0-19.3s-1.5-11.5-1.5-11.5l25,1"/>
	<path class="st9" d="M64.3,318.2l19.5,3.8c0,0,3.9,26.5,5.7,36.3s1.7,27.5,1.7,27.5s-1.7,2.4-10.8,3.8c-7.7,1.1-15.4,1.1-23.1,0.2
		c-2-0.3-3.9-0.9-5.6-1.7c0,0,0.3-38.8,0.3-42.1s2.4-21.2,4.3-22.7c2.4-1.7,4.8-3.2,7.4-4.6L64.3,318.2z"/>
	<path class="st6" d="M75.6,318.8c0,0,4.4,20.2,6.1,36.4s2,29,2,29s5.4-0.3,8.2-1.8c1.6-0.9,3.1-2,4.5-3.2c0,0-6.3-48.5-7-51.1
		s-1.7-6.3-1.7-6.3C84.1,319.6,79.8,318.5,75.6,318.8z"/>
	<path class="st9" d="M91.2,340.2c0.3,1.9,0.5,3.9,0.8,5.9c-3,0.8-6.7,1.8-11.1,2.5c-0.3-2-0.6-3.9-0.8-5.9
		C84.5,342,88.3,341,91.2,340.2z"/>
	<path class="st9" d="M83.2,375.4c-0.1-1.8-0.2-3.8-0.4-6c4-0.6,8-1.7,11.8-3.2c0.3,2.2,0.6,4.3,0.8,6
		C91.5,373.7,87.4,374.8,83.2,375.4z"/>
	<path class="st9" d="M85.9,310.4c0,0-3.9,10.3-5.2,11.6s-5.5-0.2-5.5-0.2s-0.7,11.2-2.4,9.6S65.3,319,65.3,319l-0.2-2.6l1.5-3.9
		c0,0-1.3-6.1-0.7-7.4c0.6-1,1.5-1.8,2.6-2.4c0,0,11.2,1.7,13.8,1.5c1.1,0,2.2-0.2,3.3-0.4L85.9,310.4z"/>
	<path class="st8" d="M66.2,313.6l0.4-1c0,0-1.3-6.1-0.7-7.4c0.3-0.6,0.8-1.2,1.4-1.6c1.4,0.3,2.8,0.6,4.1,1l0.6,2.9
		c0,0-0.9,3.3-1.5,2s0.4-2.6-0.7-3.5s-3.1-1.1-3.5,1.3s2.2,5.1,2.2,5.1C67.7,313,67,313.4,66.2,313.6z"/>
	<path class="st9" d="M86.6,306.5l4.8,4c-3.4,0.6-6.8,0.9-10.3,0.9c-5.3,0-9.2-3.3-10.5-4.4S83.1,308.3,86.6,306.5z"/>
	<path class="st9" d="M86.6,306.5c0,0,1.1-6.1,1.1-7.2s-3.1-6.1-10.8-6.1s-10.1,4-10.1,4l-0.9,7.9c0,0,3.3,1.8,4.8,1.8
		S82.2,307.8,86.6,306.5z"/>
	<polyline class="st9" points="81.8,312 80.9,317.3 78.3,317.5 	"/>
	<path class="st6" d="M65.1,316.4c0,0,5.3,12.1,5.7,24.1s3.1,45.8,3.1,45.8c-4.8,1.3-9.7,1.8-14.7,1.3c-7.5-0.9-11.6-4.5-11.6-4.5
		s1.3-12.1,2.2-23.1s-1.8-31.8-1.3-33.3S60.3,317.3,65.1,316.4z"/>
	<path class="st9" d="M72.7,370.5c0.2,2.1,0.3,4.1,0.4,5.9c-1.1,0-2.3,0.1-3.5,0.1c-7.1,0-14.2-0.7-21.1-1.9
		c0.2-1.8,0.4-3.8,0.6-5.9C56.8,370,64.8,370.7,72.7,370.5z"/>
	<path class="st9" d="M70.9,344.1c0.1,1.8,0.2,3.8,0.3,5.9c-4.5,0.5-9,0.7-13.5,0.7c-2.5,0-5.1-0.1-7.8-0.3c-0.1-2-0.2-3.9-0.3-5.9
		C56.7,345,63.9,344.8,70.9,344.1z"/>
	<path class="st9" d="M93.7,345c0,0,3.1-0.1,3.3,0.7c0.3,0.7,0.8,1.2,1.5,1.6c0,0,1.2,1.6,1.1,2.1s-3.1,3.3-4,3.5s-6.3-2-6.4-2.8
		s1.2-3.6,1.6-4C91.7,345.6,92.7,345.2,93.7,345z"/>
	<path class="st9" d="M94.2,342.4c0.3,0,0.4,0.3,0.4,0.5c0,0.1,0,0.1-0.1,0.2l-2.4,3.6h-0.5l2.1-4.1C93.8,342.5,94,342.4,94.2,342.4
		L94.2,342.4z"/>
	<polygon class="st8" points="77.5,355.9 82.8,346.7 100.9,347.1 88.6,362 74.1,361.8 	"/>
	<path class="st9" d="M69.2,359.9c1.1-1.1,2.2-2.2,3.2-3.4c0.9-1.2,4.6-2.8,4.8-3c0.7-0.3,1.3-0.5,2.1-0.6l-1.7,3
		c0,0,1.8,0.9,2.7,1.2s4.3,0.7,5.2,1c0.6,0.2,1,1,0.7,1.6c0,0,0,0.1,0,0.1c-0.3,0.4-2.2,0.3-2.6,0.5s-1.7,1.5-2.8,2
		s-2.6,1.8-4.1,1.7c-1.8,0-3.6,0.1-5.3,0.3l-2.3,0.4L69.2,359.9z"/>
	<path class="st9" d="M66.1,359.3l3.2-0.3c0.6,1.1,0.9,2.4,0.7,3.6c-0.2,0.9-0.5,1.7-0.9,2.5l-3,0.3V359.3z"/>
	<path class="st9" d="M50.4,326.2c0,0,7.5,2.4,8.8,7.4s0.4,13.6-0.7,15.6s-1.8,3.7-1.8,3.7l-0.7,3.9c0,0,10.5,1.1,10.9,1.8
		s1.8,6.3-0.7,7.5s-18.4,0.5-21.5-0.2s-2.8-1.8-2.4-4.4s3.5-29.6,5-32.2C47.8,327.9,48.9,326.8,50.4,326.2z"/>
	<line class="st7" x1="56.6" y1="352.8" x2="58.1" y2="339.8"/>
	<line class="st7" x1="55.9" y1="356.7" x2="48.9" y2="356.1"/>
	<path class="st6" d="M54.2,416.3c10.1,3.3,16,1.8,18.4,0.7c-0.1,1.7-0.3,3.5-0.4,5.2c-2.2,0.6-4.5,0.9-6.8,0.9
		c-3.8-0.1-7.6-0.6-11.2-1.8c0-2.1,0-3.8,0-4.7L54.2,416.3z"/>
	<path class="st6" d="M73.2,409.4c-0.1,1.6-0.2,3.4-0.4,5.2c-2.6,0.7-5.3,1.1-8,1.1c-3.6,0-7.2-0.6-10.6-1.6c0-1.5,0-3.2,0.1-5
		C64.2,412.3,70.7,410.4,73.2,409.4z"/>
</g>
<image style="overflow:visible;" width="187" height="133" xlink:href="A1E7DCBE.png"  transform="matrix(0.48 0 0 0.48 511.68 314.24)">
</image>
</svg>
